Coordinates
version=1
nRows=20
nColumns=30
inDegrees=yes

Units are S.I. units (second, meters, Newtons, ...)
Angles are in degrees.

endheader
time	floatyaw	floatroll	floatpitch	floatx	floaty	floatz	pro_sup_l	deviation_l	flexion_l	cmc_flexion_l	cmc_abduction_l	mp_flexion_l	ip_flexion_l	2mcp_flexion_l	2mcp_abduction_l	2pm_flexion_l	2md_flexion_l	3mcp_flexion_l	3mcp_abduction_l	3pm_flexion_l	3md_flexion_l	4mcp_flexion_l	4mcp_abduction_l	4pm_flexion_l	4md_flexion_l	5mcp_flexion_l	5mcp_abduction_l	5pm_flexion_l	5md_flexion_l
-0.995000	3.307552	-2.313296	98.008251	-0.101430	-0.189883	-0.027732	89.099972	1.398399	-1.729078	19.535525	2.127794	-21.076711	-34.938642	35.273225	8.671958	45.895947	32.767314	23.120147	5.024097	44.840398	31.331387	14.701476	-4.696390	58.632707	40.944780	12.273151	-9.557724	57.279517	40.842357
-0.985000	3.307552	-2.313296	98.008251	-0.101433	-0.189877	-0.027721	89.109828	1.398964	-1.727701	19.510336	2.083459	-21.093127	-34.955330	35.268361	8.673353	45.898863	32.762294	23.131936	5.015338	44.851533	31.333980	14.703449	-4.696613	58.618833	40.930054	12.295097	-9.550940	57.272782	40.832722
-0.975000	3.307552	-2.313296	98.008251	-0.101432	-0.189876	-0.027711	89.116954	1.398671	-1.732393	19.483825	2.042868	-21.105592	-34.970734	35.276077	8.676056	45.903149	32.759550	23.151590	5.005698	44.870646	31.341051	14.708553	-4.695448	58.614182	40.923220	12.326918	-9.542059	57.269997	40.821118
-0.965000	3.307552	-2.313296	98.008251	-0.101425	-0.189880	-0.027701	89.126098	1.400326	-1.743485	19.459351	2.010789	-21.114930	-34.985802	35.294709	8.677311	45.913282	32.763088	23.174750	4.996700	44.896012	31.353948	14.720209	-4.694242	58.622493	40.926537	12.366898	-9.527134	57.269550	40.807229
-0.955000	3.307552	-2.313296	98.008251	-0.101413	-0.189886	-0.027691	89.140928	1.406154	-1.758334	19.438425	1.988008	-21.122679	-35.001439	35.319078	8.674865	45.930493	32.773499	23.195310	4.989540	44.923972	31.371298	14.739159	-4.694376	58.643353	40.938077	12.411240	-9.504256	57.269359	40.791487
-0.945000	3.307552	-2.313296	98.008251	-0.101399	-0.189889	-0.027682	89.162413	1.416900	-1.772594	19.420167	1.971510	-21.129458	-35.016960	35.342894	8.668186	45.952561	32.788212	23.208571	4.984472	44.950789	31.389881	14.763061	-4.696617	58.672214	40.952681	12.456040	-9.474613	57.267622	40.775139
-0.935000	3.307552	-2.313296	98.008251	-0.101383	-0.189885	-0.027672	89.188769	1.431727	-1.782423	19.402030	1.956498	-21.134228	-35.029660	35.361641	8.658389	45.975150	32.803190	23.213722	4.980642	44.973977	31.406369	14.787891	-4.700686	58.701408	40.964239	12.498842	-9.441797	57.263148	40.759899
-0.925000	3.307552	-2.313296	98.008251	-0.101368	-0.189873	-0.027664	89.216529	1.448746	-1.786386	19.381492	1.939165	-21.135090	-35.036163	35.374388	8.647228	45.994219	32.815112	23.214000	4.976557	44.992866	31.418854	14.810395	-4.705505	58.722593	40.968193	12.538763	-9.409797	57.255833	40.747406
-0.915000	3.307552	-2.313296	98.008251	-0.101354	-0.189856	-0.027656	89.241897	1.465725	-1.785952	19.357661	1.918830	-21.131214	-35.034884	35.383545	8.636100	46.008343	32.822894	23.214510	4.970913	45.008732	31.427440	14.829950	-4.709977	58.730276	40.963201	12.575414	-9.380808	57.247437	40.738721
-0.905000	3.307552	-2.313296	98.008251	-0.101341	-0.189838	-0.027649	89.261745	1.480663	-1.784352	19.331758	1.898370	-21.124538	-35.027896	35.392724	8.625746	46.019562	32.827833	23.219239	4.963251	45.024529	31.433792	14.848353	-4.713667	58.724600	40.951382	12.607871	-9.354205	57.241791	40.734020
-0.895000	3.307552	-2.313296	98.008251	-0.101330	-0.189825	-0.027643	89.274159	1.492161	-1.784546	19.306215	1.882635	-21.119826	-35.020593	35.404030	8.616521	46.032108	32.832488	23.229074	4.954088	45.043933	31.439992	14.867594	-4.716823	58.711452	40.937139	12.634711	-9.327371	57.243494	40.732436
-0.885000	3.307552	-2.313296	98.008251	-0.101321	-0.189817	-0.027638	89.278679	1.499599	-1.787546	19.283123	1.875628	-21.122731	-35.019022	35.416482	8.608757	46.049882	32.839076	23.241726	4.944541	45.069784	31.447262	14.887400	-4.719877	58.699694	40.925185	12.654929	-9.297854	57.255408	40.732089
-0.875000	3.307552	-2.313296	98.008251	-0.101313	-0.189816	-0.027633	89.276321	1.503179	-1.792055	19.263051	1.878138	-21.136887	-35.026510	35.426637	8.602784	46.074323	32.848333	23.253252	4.935768	45.102656	31.455182	14.904641	-4.722992	58.697167	40.918676	12.668884	-9.265379	57.276551	40.730392
-0.865000	3.307552	-2.313296	98.008251	-0.101306	-0.189817	-0.027627	89.269369	1.503818	-1.795533	19.244893	1.887219	-21.161714	-35.041767	35.431024	8.598601	46.103788	32.859358	23.260188	4.928522	45.140399	31.461826	14.915208	-4.725981	58.707574	40.918250	12.678673	-9.232375	57.301848	40.724664
-0.855000	3.307552	-2.313296	98.008251	-0.101300	-0.189817	-0.027620	89.260961	1.502971	-1.795999	19.226660	1.897590	-21.192250	-35.059721	35.428793	8.595508	46.134392	32.870333	23.261186	4.923002	45.178746	31.464764	14.917083	-4.728530	58.729294	40.922284	12.687868	-9.202752	57.323891	40.712963
-0.845000	3.307552	-2.313296	98.008251	-0.101294	-0.189813	-0.027611	89.254631	1.502519	-1.793539	19.206682	1.903689	-21.221231	-35.074560	35.422823	8.592120	46.161547	32.879551	23.257480	4.918968	45.212485	31.462413	14.912452	-4.730448	58.756098	40.928025	12.700632	-9.179802	57.335734	40.694885
-0.835000	3.307552	-2.313296	98.008251	-0.101287	-0.189807	-0.027602	89.253747	1.504625	-1.790709	19.184577	1.901083	-21.242362	-35.083022	35.418621	8.586924	46.181502	32.886201	23.252168	4.915996	45.236798	31.455058	14.907406	-4.731793	58.779294	40.932892	12.720355	-9.164519	57.333541	40.672042
-0.825000	3.307552	-2.313296	98.008251	-0.101280	-0.189800	-0.027594	89.260636	1.511217	-1.791549	19.161505	1.886937	-21.252925	-35.085823	35.421754	8.579098	46.192539	32.890538	23.248843	4.913712	45.248709	31.445014	14.909339	-4.732842	58.790816	40.935304	12.748326	-9.155274	57.318210	40.647852
-0.815000	3.307552	-2.313296	98.008251	-0.101272	-0.189797	-0.027589	89.275553	1.523089	-1.799547	19.139534	1.860097	-21.254311	-35.086415	35.435199	8.569058	46.195428	32.893453	23.250273	4.911885	45.248377	31.435820	14.923572	-4.733968	58.786446	40.934865	12.783160	-9.148836	57.295341	40.626554
-0.805000	3.307552	-2.313296	98.008251	-0.101264	-0.189798	-0.027587	89.296219	1.539215	-1.815601	19.120436	1.821388	-21.250475	-35.088185	35.457869	8.558293	46.192870	32.895800	23.257668	4.910340	45.239489	31.430843	14.951013	-4.735490	58.767751	40.932111	12.821223	-9.141892	57.273395	40.611815
